<svg height="1774" width="720" xmlns="http://www.w3.org/2000/svg">
<rect height="1774" fill="#555" width="720"></rect>
<text fill="#7f7" font-family="Courier New" font-size="12" xml:space="preserve">
<tspan x="10" y="26">21 megabytes installed</tspan>
<tspan x="10" y="42"></tspan>
<tspan x="10" y="58">node_modules</tspan>
<tspan x="10" y="74">└─┬ browserify-hmr@0.3.5 </tspan>
<tspan x="10" y="90">  ├── convert-source-map@1.5.0 </tspan>
<tspan x="10" y="106">  ├─┬ express@4.15.2 </tspan>
<tspan x="10" y="122">  │ ├─┬ accepts@1.3.3 </tspan>
<tspan x="10" y="138">  │ │ ├─┬ mime-types@2.1.15 </tspan>
<tspan x="10" y="154">  │ │ │ └── mime-db@1.27.0 </tspan>
<tspan x="10" y="170">  │ │ └── negotiator@0.6.1 </tspan>
<tspan x="10" y="186">  │ ├── array-flatten@1.1.1 </tspan>
<tspan x="10" y="202">  │ ├── content-disposition@0.5.2 </tspan>
<tspan x="10" y="218">  │ ├── content-type@1.0.2 </tspan>
<tspan x="10" y="234">  │ ├── cookie@0.3.1 </tspan>
<tspan x="10" y="250">  │ ├── cookie-signature@1.0.6 </tspan>
<tspan x="10" y="266">  │ ├─┬ debug@2.6.1 </tspan>
<tspan x="10" y="282">  │ │ └── ms@0.7.2 </tspan>
<tspan x="10" y="298">  │ ├── depd@1.1.0 </tspan>
<tspan x="10" y="314">  │ ├── encodeurl@1.0.1 </tspan>
<tspan x="10" y="330">  │ ├── escape-html@1.0.3 </tspan>
<tspan x="10" y="346">  │ ├── etag@1.8.0 </tspan>
<tspan x="10" y="362">  │ ├─┬ finalhandler@1.0.2 </tspan>
<tspan x="10" y="378">  │ │ ├─┬ debug@2.6.4 </tspan>
<tspan x="10" y="394">  │ │ │ └── ms@0.7.3 </tspan>
<tspan x="10" y="410">  │ │ └── unpipe@1.0.0 </tspan>
<tspan x="10" y="426">  │ ├── fresh@0.5.0 </tspan>
<tspan x="10" y="442">  │ ├── merge-descriptors@1.0.1 </tspan>
<tspan x="10" y="458">  │ ├── methods@1.1.2 </tspan>
<tspan x="10" y="474">  │ ├─┬ on-finished@2.3.0 </tspan>
<tspan x="10" y="490">  │ │ └── ee-first@1.1.1 </tspan>
<tspan x="10" y="506">  │ ├── parseurl@1.3.1 </tspan>
<tspan x="10" y="522">  │ ├── path-to-regexp@0.1.7 </tspan>
<tspan x="10" y="538">  │ ├─┬ proxy-addr@1.1.4 </tspan>
<tspan x="10" y="554">  │ │ ├── forwarded@0.1.0 </tspan>
<tspan x="10" y="570">  │ │ └── ipaddr.js@1.3.0 </tspan>
<tspan x="10" y="586">  │ ├── qs@6.4.0 </tspan>
<tspan x="10" y="602">  │ ├── range-parser@1.2.0 </tspan>
<tspan x="10" y="618">  │ ├─┬ send@0.15.1 </tspan>
<tspan x="10" y="634">  │ │ ├── destroy@1.0.4 </tspan>
<tspan x="10" y="650">  │ │ ├── http-errors@1.6.1 </tspan>
<tspan x="10" y="666">  │ │ └── mime@1.3.4 </tspan>
<tspan x="10" y="682">  │ ├── serve-static@1.12.1 </tspan>
<tspan x="10" y="698">  │ ├── setprototypeof@1.0.3 </tspan>
<tspan x="10" y="714">  │ ├── statuses@1.3.1 </tspan>
<tspan x="10" y="730">  │ ├─┬ type-is@1.6.15 </tspan>
<tspan x="10" y="746">  │ │ └── media-typer@0.3.0 </tspan>
<tspan x="10" y="762">  │ ├── utils-merge@1.0.0 </tspan>
<tspan x="10" y="778">  │ └── vary@1.1.1 </tspan>
<tspan x="10" y="794">  ├── lodash@4.17.4 </tspan>
<tspan x="10" y="810">  ├── rsvp@3.5.0 </tspan>
<tspan x="10" y="826">  ├─┬ socket.io@1.7.3 </tspan>
<tspan x="10" y="842">  │ ├── debug@2.3.3 </tspan>
<tspan x="10" y="858">  │ ├─┬ engine.io@1.8.3 </tspan>
<tspan x="10" y="874">  │ │ ├── base64id@1.0.0 </tspan>
<tspan x="10" y="890">  │ │ ├── debug@2.3.3 </tspan>
<tspan x="10" y="906">  │ │ ├─┬ engine.io-parser@1.3.2 </tspan>
<tspan x="10" y="922">  │ │ │ ├── after@0.8.2 </tspan>
<tspan x="10" y="938">  │ │ │ ├── arraybuffer.slice@0.0.6 </tspan>
<tspan x="10" y="954">  │ │ │ ├── base64-arraybuffer@0.1.5 </tspan>
<tspan x="10" y="970">  │ │ │ ├── blob@0.0.4 </tspan>
<tspan x="10" y="986">  │ │ │ └── wtf-8@1.0.0 </tspan>
<tspan x="10" y="1002">  │ │ └─┬ ws@1.1.2 </tspan>
<tspan x="10" y="1018">  │ │   ├── options@0.0.6 </tspan>
<tspan x="10" y="1034">  │ │   └── ultron@1.0.2 </tspan>
<tspan x="10" y="1050">  │ ├─┬ has-binary@0.1.7 </tspan>
<tspan x="10" y="1066">  │ │ └── isarray@0.0.1 </tspan>
<tspan x="10" y="1082">  │ ├── object-assign@4.1.0 </tspan>
<tspan x="10" y="1098">  │ ├─┬ socket.io-adapter@0.5.0 </tspan>
<tspan x="10" y="1114">  │ │ └── debug@2.3.3 </tspan>
<tspan x="10" y="1130">  │ └─┬ socket.io-parser@2.3.1 </tspan>
<tspan x="10" y="1146">  │   ├── component-emitter@1.1.2 </tspan>
<tspan x="10" y="1162">  │   ├─┬ debug@2.2.0 </tspan>
<tspan x="10" y="1178">  │   │ └── ms@0.7.1 </tspan>
<tspan x="10" y="1194">  │   └── json3@3.3.2 </tspan>
<tspan x="10" y="1210">  ├─┬ socket.io-client@1.7.3 </tspan>
<tspan x="10" y="1226">  │ ├── backo2@1.0.2 </tspan>
<tspan x="10" y="1242">  │ ├── component-bind@1.0.0 </tspan>
<tspan x="10" y="1258">  │ ├── component-emitter@1.2.1 </tspan>
<tspan x="10" y="1274">  │ ├── debug@2.3.3 </tspan>
<tspan x="10" y="1290">  │ ├─┬ engine.io-client@1.8.3 </tspan>
<tspan x="10" y="1306">  │ │ ├── component-emitter@1.2.1 </tspan>
<tspan x="10" y="1322">  │ │ ├── component-inherit@0.0.3 </tspan>
<tspan x="10" y="1338">  │ │ ├── debug@2.3.3 </tspan>
<tspan x="10" y="1354">  │ │ ├── has-cors@1.1.0 </tspan>
<tspan x="10" y="1370">  │ │ ├── parsejson@0.0.3 </tspan>
<tspan x="10" y="1386">  │ │ ├── parseqs@0.0.5 </tspan>
<tspan x="10" y="1402">  │ │ ├── xmlhttprequest-ssl@1.5.3 </tspan>
<tspan x="10" y="1418">  │ │ └── yeast@0.1.2 </tspan>
<tspan x="10" y="1434">  │ ├── indexof@0.0.1 </tspan>
<tspan x="10" y="1450">  │ ├── object-component@0.0.3 </tspan>
<tspan x="10" y="1466">  │ ├─┬ parseuri@0.0.5 </tspan>
<tspan x="10" y="1482">  │ │ └─┬ better-assert@1.0.2 </tspan>
<tspan x="10" y="1498">  │ │   └── callsite@1.0.0 </tspan>
<tspan x="10" y="1514">  │ └── to-array@0.1.4 </tspan>
<tspan x="10" y="1530">  ├── source-map@0.5.6 </tspan>
<tspan x="10" y="1546">  ├─┬ synchd@1.0.2 </tspan>
<tspan x="10" y="1562">  │ └─┬ babel-runtime@6.23.0 </tspan>
<tspan x="10" y="1578">  │   ├── core-js@2.4.1 </tspan>
<tspan x="10" y="1594">  │   └── regenerator-runtime@0.10.4 </tspan>
<tspan x="10" y="1610">  └─┬ through2@2.0.3 </tspan>
<tspan x="10" y="1626">    ├─┬ readable-stream@2.2.9 </tspan>
<tspan x="10" y="1642">    │ ├── buffer-shims@1.0.0 </tspan>
<tspan x="10" y="1658">    │ ├── core-util-is@1.0.2 </tspan>
<tspan x="10" y="1674">    │ ├── inherits@2.0.3 </tspan>
<tspan x="10" y="1690">    │ ├── isarray@1.0.0 </tspan>
<tspan x="10" y="1706">    │ ├── process-nextick-args@1.0.7 </tspan>
<tspan x="10" y="1722">    │ ├── string_decoder@1.0.0 </tspan>
<tspan x="10" y="1738">    │ └── util-deprecate@1.0.2 </tspan>
<tspan x="10" y="1754">    └── xtend@4.0.1</tspan>
</text>
</svg>
